<svg xmlns="http://www.w3.org/2000/svg" viewBox="0 0 679 214.29"><defs><style>.cls-1{fill:#d88dff;}.cls-1,.cls-2{stroke:#d88dff;stroke-miterlimit:10;}.cls-2{fill:none;}</style></defs><g id="Layer_10" data-name="Layer 10"><path class="cls-1" d="M188.5,116.5c-16-16-37-13-43-13s-10,0-10-4,5-4,17-9,21-17,21-29-7-26-35-33-40,0-47,2-33,16-33,41,13,41,20,47c-5,18-19,38-19,38s-7-6-26-6c-23,0-25,17-25,21a18.36,18.36,0,0,0,19,17c15,0,29-18,29-18,7,4,17,8,31,4s13-19,14-29-13-26-15-28-1-4,1-7,8-17,12-30,14-35,20-41,9-7,18-5,16,15,16,32-12,22-17,25-6,6-6,9,1,9,18,11,23,18,24,29-2,30-14,38-30,4-38,0-7-14-7-16,2-1,6,2,9-2,8-7-4-8-11-7-9,13-7,20,6,18,34,18,41-17,45-23S204.5,132.5,188.5,116.5Zm-146,60c-5,4-9,6-15,6s-9-5-9-10,5-10,14-11,19,6,19,6A65.8,65.8,0,0,1,42.5,176.5Zm51-29c-3,11-10,15-14,15s-14-2-15-3l-1-1s10-12,12-17,8-19,8-19S96.5,136.5,93.5,147.5Zm10-91c-7,18-11,28-13,33s-6,18-7,19-3,6-7-6-2-32,3-42,15-24,25-27,12-3,17-2C122.89,31.78,110.5,38.5,103.5,56.5Z"/><path class="cls-2" d="M51.5,167.5a65.8,65.8,0,0,1-9,9c-5,4-9,6-15,6s-9-5-9-10,5-10,14-11S51.5,167.5,51.5,167.5Z"/><path class="cls-2" d="M83.5,122.5s13,14,10,25-10,15-14,15-14-2-15-3l-1-1s10-12,12-17S83.5,122.5,83.5,122.5Z"/><path class="cls-2" d="M103.5,56.5c-7,18-11,28-13,33s-6,18-7,19-3,6-7-6-2-32,3-42,15-24,25-27,12-3,17-2C122.89,31.78,110.5,38.5,103.5,56.5Z"/><path class="cls-2" d="M103.5,56.5c-7,18-11,28-13,33s-6,18-7,19-3,6-7-6-2-32,3-42,15-24,25-27,12-3,17-2C122.89,31.78,110.5,38.5,103.5,56.5Z"/><path class="cls-2" d="M93.5,147.5c-3,11-10,15-14,15s-14-2-15-3l-1-1s10-12,12-17,8-19,8-19S96.5,136.5,93.5,147.5Z"/><path class="cls-2" d="M51.5,167.5a65.8,65.8,0,0,1-9,9c-5,4-9,6-15,6s-9-5-9-10,5-10,14-11S51.5,167.5,51.5,167.5Z"/><path class="cls-1" d="M264.5,99.5c-12-2-19,2-30,8s-28,26-29,46,12,31,25,34,28-7,39-16,17-29,18-36S286.56,103.18,264.5,99.5Zm9,27c-1,7-14,41-20,46s-10,11-20,10-16-11-13-23,13-39,21-46,14-12,23-9C274.17,107.72,274.5,119.5,273.5,126.5Z"/><path class="cls-2" d="M273.5,126.5c-1,7-14,41-20,46s-10,11-20,10-16-11-13-23,13-39,21-46,14-12,23-9C274.17,107.72,274.5,119.5,273.5,126.5Z"/><path class="cls-2" d="M273.5,126.5c-1,7-14,41-20,46s-10,11-20,10-16-11-13-23,13-39,21-46,14-12,23-9C274.17,107.72,274.5,119.5,273.5,126.5Z"/><path class="cls-1" d="M459.63,99.12c-12-2-19,2-30,8s-28,26-29,46,12,31,25,34,28-7,39-16,17-29,18-36S481.69,102.8,459.63,99.12Zm9,27c-1,7-14,41-20,46s-10,11-20,10-16-11-13-23,13-39,21-46,14-12,23-9C469.3,107.34,469.63,119.12,468.63,126.12Z"/><path class="cls-1" d="M386.5,35.5c-17-22-45-19-50-17s-23,14-21,31,17,14,17,14c7,0,9-5,9-7s-1-8-6-8-7,5-7,6v3s-8-1-8-7,2-28,26-28,33,10,37,22,4,43-10,72q-1.5-12-9-15c-5-2-15-6-27,0s-26,19-30,26c0,0-12,16-9,32s12,28,28,28,34-9,44-26,19-29,24-51S403.5,57.5,386.5,35.5Zm-22,104c-5,12-19,39-29,42s-15,1-20-8,3-31,8-42,19-35,37-28C372.62,108.21,369.5,127.5,364.5,139.5Z"/><path class="cls-2" d="M364.5,139.5c-5,12-19,39-29,42s-15,1-20-8,3-31,8-42,19-35,37-28C372.62,108.21,369.5,127.5,364.5,139.5Z"/><path class="cls-2" d="M364.5,139.5c-5,12-19,39-29,42s-15,1-20-8,3-31,8-42,19-35,37-28C372.62,108.21,369.5,127.5,364.5,139.5Z"/><path class="cls-1" d="M515.5,106.5c-5,0-8-1-8-3s3-3,8-2,12,1,14,0,10-3,9,2-3,7-3,8,0,3,3,0,9-13,25-13,22,12,18,23-18,40-19,42-7,15,0,15,15-5,18-9,6-6,7-4,0,3-3,7-16,15-27,15-16-7-15-13,5-17,8-23,15-29,15-36-2-9-11-8-15,7-18,11-29,62-29,62-2,5-6,5h-12s-4,0-1-5,17-36,18-38,13-30,13-30,4-4,0-5Z"/><path class="cls-1" d="M622.5,106.5c-4,0-8-2-7-4s4-1,6-1,13,1,16,0,11-4,11-1-6,12-9,17-22,43-22,43-7,13-3,16,13,1,15,0,11-10,13-11,3-1,3,1-9,11-11,12-15,10-24,8-16-9-10-24,25-49,25-49,2-3,2-5,1-2-2-2h-3"/><path class="cls-1" d="M658.5,31.5c9,0,9,9,9,9s-1,9-9,9-9-9-9-9S649.5,31.5,658.5,31.5Z"/></g></svg>