<svg xmlns="http://www.w3.org/2000/svg" viewBox="0 0 706 214.29"><defs><style>.cls-1{fill:#d88dff;}.cls-1,.cls-2{stroke:#d88dff;stroke-miterlimit:10;}.cls-2{fill:none;}</style></defs><g id="Layer_12" data-name="Layer 12"><path class="cls-1" d="M80.5,104.5s42-5,42-38-30-37-39-37H9.5v5h20l-1,145H9.5v6h78c5,0,41-1,41-39S80.5,104.5,80.5,104.5Zm-27-67h22c7,0,23,3,23,30s-18,33-25,33h-20Zm21,140h-21v-70h17c8,0,32,3,32,37S80.5,177.5,74.5,177.5Z"/><path class="cls-2" d="M73.5,100.5h-20v-63h22c7,0,23,3,23,30S80.5,100.5,73.5,100.5Z"/><path class="cls-2" d="M102.5,144.5c0,34-22,33-28,33h-21v-70h17C78.5,107.5,102.5,110.5,102.5,144.5Z"/><path class="cls-2" d="M98.5,67.5c0,27-18,33-25,33h-20v-63h22C82.5,37.5,98.5,40.5,98.5,67.5Z"/><path class="cls-2" d="M102.5,144.5c0,34-22,33-28,33h-21v-70h17C78.5,107.5,102.5,110.5,102.5,144.5Z"/><path class="cls-1" d="M200.5,85.5c-19,0-47,12-47,52s37,52,51,52,49-12,49-47S231.5,85.5,200.5,85.5Zm4,98c-11,0-29-9-29-46s12-48,25-48c14,0,31,11,31,50S215.5,183.5,204.5,183.5Z"/><path class="cls-2" d="M231.5,139.5c0,39-16,44-27,44s-29-9-29-46,12-48,25-48C214.5,89.5,231.5,100.5,231.5,139.5Z"/><path class="cls-2" d="M231.5,139.5c0,39-16,44-27,44s-29-9-29-46,12-48,25-48C214.5,89.5,231.5,100.5,231.5,139.5Z"/><path class="cls-1" d="M363.5,178.5V26.5s-9,5-17,5h-21v6h20v62s-10-14-28-14-43,15-43,54,26,50,44,50,26-17,26-17v17a26.38,26.38,0,0,1,13-4h25v-7Zm-44,5c-15,0-24-15-24-46s8-46,24-46c18,0,25,15,25,45S334.5,183.5,319.5,183.5Z"/><path class="cls-2" d="M344.5,136.5c0,30-10,47-25,47s-24-15-24-46,8-46,24-46C337.5,91.5,344.5,106.5,344.5,136.5Z"/><path class="cls-2" d="M344.5,136.5c0,30-10,47-25,47s-24-15-24-46,8-46,24-46C337.5,91.5,344.5,106.5,344.5,136.5Z"/><path class="cls-1" d="M440.86,85.52c-19,0-47,12-47,52s37,52,51,52,49-12,49-47S471.86,85.52,440.86,85.52Zm4,98c-11,0-29-9-29-46s12-48,25-48c14,0,31,11,31,50S455.86,183.52,444.86,183.52Z"/><path class="cls-1" d="M511.5,95.5v-6a97.92,97.92,0,0,0,19,0,64.81,64.81,0,0,0,18-4v16s11-16,34-16,30,14,30,27v69h13v6h-49v-6h16v-71s-1-18-15-18-29,17-29,17v72h15v6h-50v-7h16v-85Z"/><path class="cls-1" d="M636.5,94.5v-6h21c9,0,16-7,16-7s4,6,4,16v83h17v7h-56v-7h18v-86Z"/><path class="cls-1" d="M665.5,27.5c11,0,13,9,13,11s-5,14-12,14-12-3-12-12S662.5,27.5,665.5,27.5Z"/></g></svg>