<svg xmlns="http://www.w3.org/2000/svg" viewBox="0 0 695 214.29"><defs><style>.cls-1{fill:#d88dff;}.cls-1,.cls-2{stroke:#d88dff;stroke-miterlimit:10;}.cls-2{fill:none;}</style></defs><g id="Layer_5" data-name="Layer 5"><path class="cls-1" d="M96.5,103.5s38-5,38-36c0-37-37-41-45-41H8.5v6h22l-1,152H8.5v4h88c3,0,40-3,44-41S96.5,103.5,96.5,103.5Zm-44-70h32c8,0,25,1,25,34s-21,32-25,32h-32Zm32,151h-32v-77h33c8,0,29,3,29,40S90.5,184.5,84.5,184.5Z"/><path class="cls-2" d="M84.5,99.5h-32v-66h32c8,0,25,1,25,34S88.5,99.5,84.5,99.5Z"/><path class="cls-2" d="M114.5,147.5c0,37-24,37-30,37h-32v-77h33C93.5,107.5,114.5,110.5,114.5,147.5Z"/><path class="cls-2" d="M109.5,67.5c0,33-21,32-25,32h-32v-66h32C92.5,33.5,109.5,34.5,109.5,67.5Z"/><path class="cls-2" d="M114.5,147.5c0,37-24,37-30,37h-32v-77h33C93.5,107.5,114.5,110.5,114.5,147.5Z"/><path class="cls-1" d="M207.5,92.5c-23,0-46,16-46,50s27,50,46,50,46-18,46-50S231.5,92.5,207.5,92.5Zm24,71c-1,8-6,24-24,24s-25-17-25-23v-43c0-8,7-25,25-25,11,0,24,8,24,27S232.5,155.5,231.5,163.5Z"/><path class="cls-2" d="M231.5,163.5c-1,8-6,24-24,24s-25-17-25-23v-43c0-8,7-25,25-25,11,0,24,8,24,27S232.5,155.5,231.5,163.5Z"/><path class="cls-2" d="M231.5,163.5c-1,8-6,24-24,24s-25-17-25-23v-43c0-8,7-25,25-25,11,0,24,8,24,27S232.5,155.5,231.5,163.5Z"/><path class="cls-1" d="M444.5,92.5c-23,0-46,16-46,50s27,50,46,50,46-18,46-50S468.5,92.5,444.5,92.5Zm24,71c-1,8-6,24-24,24s-25-17-25-23v-43c0-8,7-25,25-25,11,0,24,8,24,27S469.5,155.5,468.5,163.5Z"/><path class="cls-1" d="M363.5,183.5V24.5h-4s-6,3-9,3h-22v5h19v78s-12-18-30-18c-28,0-41,23-42,54s25,46,43,46,28-17,28-17v15h3s4-2,7-2h23v-5Zm-16-21c0,3-10,25-28,25s-24-15-24-20v-49c0-12,9-22,21-22s31,14,31,28Z"/><path class="cls-2" d="M347.5,124.5v38c0,3-10,25-28,25s-24-15-24-20v-49c0-12,9-22,21-22S347.5,110.5,347.5,124.5Z"/><path class="cls-2" d="M347.5,124.5v38c0,3-10,25-28,25s-24-15-24-20v-49c0-12,9-22,21-22S347.5,110.5,347.5,124.5Z"/><path class="cls-1" d="M508.5,99.5v-6h19a15.39,15.39,0,0,0,8-2h6v22h2s8-22,30-22,32,10,32,19,1,73,1,73h14v5h-48v-5h15v-71c0-7-2-16-17-16s-29,24-29,31,1,56,1,56h14v5h-48v-5h16l1-84Z"/><path class="cls-1" d="M634.5,98.5v-5h19a20.69,20.69,0,0,0,8-2h5v91h17v6h-51v-6h18l-1-83h-15Z"/><path class="cls-1" d="M668.5,46.5c0,11-12,11-12,11s-11,1-11-11c0-14,12-13,12-13S668.5,32.5,668.5,46.5Z"/></g></svg>