<svg xmlns="http://www.w3.org/2000/svg" viewBox="0 0 967 214.29"><defs><style>.cls-1{fill:#d88dff;}.cls-1,.cls-2{stroke:#d88dff;stroke-miterlimit:10;}.cls-2{fill:none;}</style></defs><g id="Layer_7" data-name="Layer 7"><path class="cls-1" d="M107.5,103.5s43-1,43-39-45-38-52-38h-70v6h19v149h-19v5h81c11,0,45-5,45-42S107.5,103.5,107.5,103.5Zm-32-71h27c7,0,20,6,20,32s-13,36-20,36h-27Zm29,149h-29v-74h28c8,0,23,10,23,38S117.5,181.5,104.5,181.5Z"/><path class="cls-2" d="M102.5,100.5h-27v-68h27c7,0,20,6,20,32S109.5,100.5,102.5,100.5Z"/><path class="cls-2" d="M126.5,145.5c0,28-9,36-22,36h-29v-74h28C111.5,107.5,126.5,117.5,126.5,145.5Z"/><path class="cls-2" d="M122.5,64.5c0,26-13,36-20,36h-27v-68h27C109.5,32.5,122.5,38.5,122.5,64.5Z"/><path class="cls-2" d="M126.5,145.5c0,28-9,36-22,36h-29v-74h28C111.5,107.5,126.5,117.5,126.5,145.5Z"/><path class="cls-1" d="M227.5,78.5c-38,0-52,34-52,57s12,56,52,56,52-37,52-56S266.5,78.5,227.5,78.5Zm0,108c-22,0-26-17-26-51s2-53,26-52c22,.92,25,20,25,52S249.5,186.5,227.5,186.5Z"/><path class="cls-2" d="M252.5,135.5c0,32-3,51-25,51s-26-17-26-51,2-53,26-52C249.48,84.42,252.5,103.5,252.5,135.5Z"/><path class="cls-2" d="M252.5,135.5c0,32-3,51-25,51s-26-17-26-51,2-53,26-52C249.48,84.42,252.5,103.5,252.5,135.5Z"/><path class="cls-1" d="M484,78.76c-38,0-52,34-52,57s12,56,52,56,52-37,52-56S523,78.76,484,78.76Zm0,108c-22,0-26-17-26-51s2-53,26-52c22,.92,25,20,25,52S506,186.76,484,186.76Z"/><path class="cls-1" d="M401.5,181.5V25.5h-42v6h19v69c0-4-14-22-32-22s-43,21-43,57,22,56,45,56,31-23,31-23v20h38v-7Zm-53,5c-18,0-20-13-20-53s6-50,20-50c15,0,30,13,30,50S366.5,186.5,348.5,186.5Z"/><path class="cls-2" d="M378.5,133.5c0,37-12,53-30,53s-20-13-20-53,6-50,20-50C363.5,83.5,378.5,96.5,378.5,133.5Z"/><path class="cls-2" d="M378.5,133.5c0,37-12,53-30,53s-20-13-20-53,6-50,20-50C363.5,83.5,378.5,96.5,378.5,133.5Z"/><path class="cls-1" d="M550.5,88.5v-6h39v29s11-33,38-33,33,19,33,26v77h16v6h-53v-6h14v-78c0-7-2-18-16-18s-32,27-32,35v61h18v6h-55v-6h15v-93Z"/><polygon class="cls-1" points="685.5 88.5 685.5 82.5 726.5 82.5 726.5 181.5 743.5 181.5 743.5 187.5 687.5 187.5 687.5 181.5 704.5 181.5 704.5 88.5 685.5 88.5"/><path class="cls-1" d="M714.5,32.5c14,0,14,14,14,14s-1,14-14,14-14-13-14-14S700.5,32.5,714.5,32.5Z"/></g></svg>