<svg xmlns="http://www.w3.org/2000/svg" viewBox="0 0 967 214.29"><defs><style>.cls-1,.cls-3{fill:#d88dff;}.cls-1,.cls-2{stroke:#d88dff;stroke-miterlimit:10;}.cls-2{fill:none;}</style></defs><g id="Layer_3" data-name="Layer 3"><path class="cls-1" d="M112.5,105.5s45-2,44-38-39-39-45-39h-80v2h20v160h-20v3h86c1,0,43-4,43-45S112.5,105.5,112.5,105.5Zm-39-74h26c2,0,35,2,34,36-2,32-27,35-29,35h-31Zm28,158h-27l-1-81h33c3,0,29,6,29,40S105.5,189.5,101.5,189.5Z"/><path class="cls-2" d="M135.5,148.5c0,34-30,41-34,41h-27l-1-81h33C109.5,108.5,135.5,114.5,135.5,148.5Z"/><path class="cls-2" d="M104.5,102.5h-31v-71h26c2,0,35,2,34,36C131.5,99.5,106.5,102.5,104.5,102.5Z"/><path class="cls-2" d="M133.5,67.5c-2,32-27,35-29,35h-31v-71h26C101.5,31.5,134.5,33.5,133.5,67.5Z"/><path class="cls-2" d="M135.5,148.5c0,34-30,41-34,41h-27l-1-81h33C109.5,108.5,135.5,114.5,135.5,148.5Z"/><path class="cls-3" d="M517,97V94h25s4,0,6-3h3v19h2s13-19,33-19,34,13,34,25v74h11v3H585v-3h14V109s2-14-13-14-35,19-35,23v73h14v2H519v-2h12V97Z"/><path class="cls-3" d="M663,22s11,1,11,10-9,10-11,10a9.68,9.68,0,0,1-9-10C654,24,662,22,663,22Z"/><path class="cls-3" d="M654,97H640V94h21s9,0,10-3h3v99h11v3H642v-3h12Z"/><path class="cls-2" d="M368.5,119.5v50s-11,23-32,23-27-15-27-25v-47S312.5,95,335,95,368.5,116.5,368.5,119.5Z"/><path class="cls-1" d="M388.5,190.5V22.5h-3c-3,5-16,6-16,6h-15v3h14v79s-9-19-34-19-46,20-46,53,25,52,47,52,33-20,33-20v17h34v-3Zm-20-21s-11,23-32,23-27-15-27-25v-47S312.5,95,335,95s33.5,21.5,33.5,24.5Z"/><path class="cls-2" d="M368.5,119.5v50s-11,23-32,23-27-15-27-25v-47S312.5,95,335,95,368.5,116.5,368.5,119.5Z"/><path class="cls-1" d="M459,91.28s-49,0-49,51,45,51,49,51,49-1,49-51S459,91.28,459,91.28Zm25.5,77.5c0,4-2,22-26,22s-25-18-25-21v-54s4-22,25-22c0,0,26,2,26,23Z"/><path class="cls-2" d="M251,117v52c0,4-2,22-26,22s-25-18-25-21V116s4-22,25-22C225,94,251,96,251,117Z"/><path class="cls-1" d="M225.5,91.5s-49,0-49,51,45,51,49,51,49-1,49-51S225.5,91.5,225.5,91.5ZM251,169c0,4-2,22-26,22s-25-18-25-21V116s4-22,25-22c0,0,26,2,26,23Z"/><path class="cls-2" d="M251,117v52c0,4-2,22-26,22s-25-18-25-21V116s4-22,25-22C225,94,251,96,251,117Z"/></g></svg>