<svg xmlns="http://www.w3.org/2000/svg" viewBox="0 0 967 214.29"><defs><style>.cls-1{fill:#d88dff;}.cls-1,.cls-2{stroke:#d88dff;stroke-miterlimit:10;}.cls-2{fill:none;}</style></defs><g id="Layer_6" data-name="Layer 6"><path class="cls-1" d="M114.5,104.5s37-4,37-37-33-40-41-40h-83v5h22v153h-22v5h85c5,0,47-3,47-43S114.5,104.5,114.5,104.5Zm-41-72h27c7,0,23,5,23,34s-16,36-25,36h-25ZM101.25,185H73.5V108.5h30c7.77,0,25.53,5.46,25.53,37.16S111.24,185,101.25,185Z"/><path class="cls-2" d="M98.5,102.5h-25v-70h27c7,0,23,5,23,34S107.5,102.5,98.5,102.5Z"/><path class="cls-2" d="M129,145.66c0,31.69-17.76,39.34-27.75,39.34H73.5V108.5h30C111.24,108.5,129,114,129,145.66Z"/><path class="cls-2" d="M123.5,66.5c0,29-16,36-25,36h-25v-70h27C107.5,32.5,123.5,37.5,123.5,66.5Z"/><path class="cls-2" d="M129,145.66c0,31.69-17.76,39.34-27.75,39.34H73.5V108.5h30C111.24,108.5,129,114,129,145.66Z"/><path class="cls-1" d="M230.5,93.5c-22,0-50,11-50,50s31,51,50,51,49-13,49-49S252.5,93.5,230.5,93.5Zm-1,95c-10,0-24-2-24-45s12-45,24-45c16,0,24,5,24,47S239.5,188.5,229.5,188.5Z"/><path class="cls-2" d="M253.5,145.5c0,42-14,43-24,43s-24-2-24-45,12-45,24-45C245.5,98.5,253.5,103.5,253.5,145.5Z"/><path class="cls-2" d="M253.5,145.5c0,42-14,43-24,43s-24-2-24-45,12-45,24-45C245.5,98.5,253.5,103.5,253.5,145.5Z"/><path class="cls-1" d="M468.52,93.87c-22,0-50,11-50,50s31,51,50,51,49-13,49-49S490.52,93.87,468.52,93.87Zm-1,95c-10,0-24-2-24-45s12-45,24-45c16,0,24,5,24,47S477.52,188.87,467.52,188.87Z"/><path class="cls-1" d="M390.5,184.5V27.5h-41v4h19v80s-12-18-26-18c-27,0-44,16-44,52s20,48,42,49,28-21,28-21v16h36v-5Zm-48,4c-7,0-20,4-20-46,0-44,14-43,19-43,9,0,26,8,26,45S349.5,188.5,342.5,188.5Z"/><path class="cls-2" d="M367.5,144.5c0,37-18,44-25,44s-20,4-20-46c0-44,14-43,19-43C350.5,99.5,367.5,107.5,367.5,144.5Z"/><path class="cls-2" d="M367.5,144.5c0,37-18,44-25,44s-20,4-20-46c0-44,14-43,19-43C350.5,99.5,367.5,107.5,367.5,144.5Z"/><path class="cls-1" d="M532.5,101.5v-5h37v14s8-17,31-17,32,16,32,22v69h16v5h-53v-5h15v-67c0-7-3-18-15-18s-24,16-26,21-1,64-1,64h16v5h-52v-5h15v-83Z"/><polygon class="cls-1" points="658.5 101.5 658.5 96.5 695.5 96.5 695.5 184.5 711.5 184.5 711.5 189.5 658.5 189.5 658.5 184.5 673.5 184.5 673.5 101.5 658.5 101.5"/><path class="cls-1" d="M684.5,30.5c14,0,14,13,14,13s0,15-14,15-14-14-14-14S670.5,30.5,684.5,30.5Z"/></g></svg>