<svg xmlns="http://www.w3.org/2000/svg" viewBox="0 0 708 214.29"><defs><style>.cls-1,.cls-3{fill:#d88dff;}.cls-1,.cls-2{stroke:#d88dff;stroke-miterlimit:10;}.cls-2{fill:none;}</style></defs><g id="Layer_4" data-name="Layer 4"><path class="cls-1" d="M93.5,104.5c6,0,38-12,38-37,0-40-46-39-49-39H7.5v4h22l-1,152H8.5v5h87c5,0,43-4,43-42S100.5,104.5,93.5,104.5Zm-39-72h27s24-2,24,36c0,33-26,34-26,34h-25Zm32,152h-32v-77h22s34-3,34,41C110.5,183.5,86.5,184.5,86.5,184.5Z"/><path class="cls-2" d="M79.5,102.5h-25v-70h27s24-2,24,36C105.5,101.5,79.5,102.5,79.5,102.5Z"/><path class="cls-2" d="M110.5,148.5c0,35-24,36-24,36h-32v-77h22S110.5,104.5,110.5,148.5Z"/><path class="cls-2" d="M105.5,68.5c0,33-26,34-26,34h-25v-70h27S105.5,30.5,105.5,68.5Z"/><path class="cls-2" d="M110.5,148.5c0,35-24,36-24,36h-32v-77h22S110.5,104.5,110.5,148.5Z"/><path class="cls-1" d="M209,93s-49,1-49,50,50,50,50,50,49,1,49-50S209,93,209,93Zm24.5,76.5c-1,6-5,18-23,18s-24-13-24-17v-60c0-6,9-15,23-15,13,0,24,7,24,16S234.49,163.58,233.5,169.5Z"/><path class="cls-2" d="M233.5,169.5c-1,6-5,18-23,18s-24-13-24-17v-60c0-6,9-15,23-15,13,0,24,7,24,16S234.49,163.58,233.5,169.5Z"/><path class="cls-2" d="M233.5,169.5c-1,6-5,18-23,18s-24-13-24-17v-60c0-6,9-15,23-15,13,0,24,7,24,16S234.49,163.58,233.5,169.5Z"/><path class="cls-1" d="M449,93.32s-49,1-49,50,50,50,50,50,49,1,49-50S449,93.32,449,93.32Zm24.5,76.5c-1,6-5,18-23,18s-24-13-24-17v-60c0-6,9-15,23-15,13,0,24,7,24,16S474.49,163.9,473.5,169.82Z"/><path class="cls-1" d="M370.5,187.5V28.5h-38v4h14v77s-8-18-27-18-42,18-42,52,27,50,41,50,28-19,28-19v17h39v-4Zm-25-30c0,15-10,29-27,29-10,0-14-16-14-16v-56c0-7,6-18,15-18s26,12,26,29Z"/><path class="cls-2" d="M345.5,125.5v32c0,15-10,29-27,29-10,0-14-16-14-16v-56c0-7,6-18,15-18S345.5,108.5,345.5,125.5Z"/><path class="cls-2" d="M345.5,125.5v32c0,15-10,29-27,29-10,0-14-16-14-16v-56c0-7,6-18,15-18S345.5,108.5,345.5,125.5Z"/><path class="cls-3" d="M517,100V96h37v9h2s11-14,30-14,31,16,31,23,1,73,1,73h16v4H580v-4h16V117c0-3-3-18-18-18s-24,20-24,20v68h14v4H517v-4h16V100Z"/><polygon class="cls-3" points="648 100 648 95 685 95 685 187 701 187 701 191 646 191 646 187 662 187 663 100 648 100"/><path class="cls-3" d="M673,30c13,0,13,14,13,14s0,14-12,14c-14,0-15-14-15-14S659,30,673,30Z"/></g></svg>