<svg xmlns="http://www.w3.org/2000/svg" viewBox="0 0 666 214.29"><defs><style>.cls-1{fill:#d88dff;}.cls-1,.cls-2{stroke:#d88dff;stroke-miterlimit:10;}.cls-2{fill:none;}</style></defs><g id="Layer_9" data-name="Layer 9"><path class="cls-1" d="M100.5,96.5s20-6,20-33c0-37-37-43-37-43h-72v12h18v138h-17v11h75c12,0,40-14,40-44S100.5,96.5,100.5,96.5Zm-57-63h36c7,0,27,5,27,29s-18,29-25,29h-38ZM84.82,167.56H43.5V104.5H82.64c7.61,0,29.36,5.44,29.36,31.53S92.43,167.56,84.82,167.56Z"/><path class="cls-2" d="M81.5,91.5h-38v-58h36c7,0,27,5,27,29S88.5,91.5,81.5,91.5Z"/><path class="cls-2" d="M112,136c0,26.1-19.57,31.53-27.18,31.53H43.5V104.5H82.64C90.25,104.5,112,109.94,112,136Z"/><path class="cls-2" d="M106.5,62.5c0,24-18,29-25,29h-38v-58h36C86.5,33.5,106.5,38.5,106.5,62.5Z"/><path class="cls-2" d="M112,136c0,26.1-19.57,31.53-27.18,31.53H43.5V104.5H82.64C90.25,104.5,112,109.94,112,136Z"/><path class="cls-1" d="M196.5,78.5c-30,0-49,25-47,54s19,53,47,53,46-24,46-53S226.5,78.5,196.5,78.5Zm-1,96c-17,0-32-19-32-38s9-46,32-46c19,0,33,16,33,42S212.5,174.5,195.5,174.5Z"/><path class="cls-2" d="M228.5,132.5c0,26-16,42-33,42s-32-19-32-38,9-46,32-46C214.5,90.5,228.5,106.5,228.5,132.5Z"/><path class="cls-2" d="M228.5,132.5c0,26-16,42-33,42s-32-19-32-38,9-46,32-46C214.5,90.5,228.5,106.5,228.5,132.5Z"/><path class="cls-1" d="M427.87,78.21c-30,0-49,25-47,54s19,53,47,53,46-24,46-53S457.87,78.21,427.87,78.21Zm-1,96c-17,0-32-19-32-38s9-46,32-46c19,0,33,16,33,42S443.87,174.21,426.87,174.21Z"/><path class="cls-1" d="M349.5,169.5V16.5a25.22,25.22,0,0,1-15,5h-16v12h17s.86,56.45,1,61.77a2,2,0,0,1,0,.23c0,.3,0,.21,0-.23C335.9,91,320.2,78.5,304.5,78.5c-16,0-41,13-41,54s24,53,43,53,30-15,30-15v11h30v-12Zm-44,4c-25,0-29-29-29-41s5-42,29-42c22,0,30,19,30,40S330.5,173.5,305.5,173.5Z"/><path class="cls-2" d="M335.5,130.5c0,21-5,43-30,43s-29-29-29-41,5-42,29-42C327.5,90.5,335.5,109.5,335.5,130.5Z"/><path class="cls-2" d="M336.5,95.5c0,.3,0,.21,0-.23A2,2,0,0,1,336.5,95.5Z"/><path class="cls-2" d="M335.5,130.5c0,21-5,43-30,43s-29-29-29-41,5-42,29-42C327.5,90.5,335.5,109.5,335.5,130.5Z"/><path class="cls-1" d="M505.5,94.5h-15v-12h15a26.38,26.38,0,0,0,13-4v16s12-16,32-16,31,15,31,24v67h14v12h-40v-12h12l1-59s0-20-18-20-31,14-31,21v58h13v12h-41v-12h14Z"/><path class="cls-1" d="M624.5,95.5h-18v-12h16a25.22,25.22,0,0,0,15-5v90h16v13h-47v-13h18Z"/><path class="cls-1" d="M629.5,27.5c10,0,10,11,10,11s-1,10-10,10-10-10-10-10S619.5,27.5,629.5,27.5Z"/></g></svg>