<svg xmlns="http://www.w3.org/2000/svg" viewBox="0 0 967 214.29"><defs><style>.cls-1,.cls-3{fill:#d88dff;}.cls-1,.cls-2{stroke:#d88dff;stroke-miterlimit:10;}.cls-2{fill:none;}</style></defs><g id="Layer_4" data-name="Layer 4"><path class="cls-1" d="M113.5,104.5c6,0,38-12,38-37,0-40-46-39-49-39h-75v4h22l-1,152h-20v5h87c5,0,43-4,43-42S120.5,104.5,113.5,104.5Zm-39-72h27s24-2,24,36c0,33-26,34-26,34h-25Zm32,152h-32v-77h22s34-3,34,41C130.5,183.5,106.5,184.5,106.5,184.5Z"/><path class="cls-2" d="M99.5,102.5h-25v-70h27s24-2,24,36C125.5,101.5,99.5,102.5,99.5,102.5Z"/><path class="cls-2" d="M130.5,148.5c0,35-24,36-24,36h-32v-77h22S130.5,104.5,130.5,148.5Z"/><path class="cls-2" d="M125.5,68.5c0,33-26,34-26,34h-25v-70h27S125.5,30.5,125.5,68.5Z"/><path class="cls-2" d="M130.5,148.5c0,35-24,36-24,36h-32v-77h22S130.5,104.5,130.5,148.5Z"/><path class="cls-1" d="M229,93s-49,1-49,50,50,50,50,50,49,1,49-50S229,93,229,93Zm24.5,76.5c-1,6-5,18-23,18s-24-13-24-17v-60c0-6,9-15,23-15,13,0,24,7,24,16S254.49,163.58,253.5,169.5Z"/><path class="cls-2" d="M253.5,169.5c-1,6-5,18-23,18s-24-13-24-17v-60c0-6,9-15,23-15,13,0,24,7,24,16S254.49,163.58,253.5,169.5Z"/><path class="cls-2" d="M253.5,169.5c-1,6-5,18-23,18s-24-13-24-17v-60c0-6,9-15,23-15,13,0,24,7,24,16S254.49,163.58,253.5,169.5Z"/><path class="cls-1" d="M469,93.32s-49,1-49,50,50,50,50,50,49,1,49-50S469,93.32,469,93.32Zm24.5,76.5c-1,6-5,18-23,18s-24-13-24-17v-60c0-6,9-15,23-15,13,0,24,7,24,16S494.49,163.9,493.5,169.82Z"/><path class="cls-1" d="M390.5,187.5V28.5h-38v4h14v77s-8-18-27-18-42,18-42,52,27,50,41,50,28-19,28-19v17h39v-4Zm-25-30c0,15-10,29-27,29-10,0-14-16-14-16v-56c0-7,6-18,15-18s26,12,26,29Z"/><path class="cls-2" d="M365.5,125.5v32c0,15-10,29-27,29-10,0-14-16-14-16v-56c0-7,6-18,15-18S365.5,108.5,365.5,125.5Z"/><path class="cls-2" d="M365.5,125.5v32c0,15-10,29-27,29-10,0-14-16-14-16v-56c0-7,6-18,15-18S365.5,108.5,365.5,125.5Z"/><path class="cls-3" d="M537,100V96h37v9h2s11-14,30-14,31,16,31,23,1,73,1,73h16v4H600v-4h16V117c0-3-3-18-18-18s-24,20-24,20v68h14v4H537v-4h16V100Z"/><polygon class="cls-3" points="668 100 668 95 705 95 705 187 721 187 721 191 666 191 666 187 682 187 683 100 668 100"/><path class="cls-3" d="M693,30c13,0,13,14,13,14s0,14-12,14c-14,0-15-14-15-14S679,30,693,30Z"/></g></svg>