<svg xmlns="http://www.w3.org/2000/svg" viewBox="0 0 758 214.29"><defs><style>.cls-1{fill:#d88dff;}.cls-1,.cls-2{stroke:#d88dff;stroke-miterlimit:10;}.cls-2{fill:none;}</style></defs><g id="Layer_8" data-name="Layer 8"><path class="cls-1" d="M133.5,110.5c-1-1-10-7-13-7s-9-2-10-4-1-2,6-6,18-32,18-34a18.54,18.54,0,0,0-2-7c-1-2-1-6-2-7l-4-4c-2-2-15-11-17-13s-2-1-5-1-5-1-9-2-10,0-15,0-6,2-6,2h-52c-2,0-4-2-6-2s-7.42,1.42-9,3c-1,1,1,2,2,2s1,0,4,1,17,2,17,2v2c0,1-1,10-2,12s-2,11-3,14-1,12-2,13,0,9,0,13-3,18-3,21,1,20,0,31,17,32,18,34,1,6-1,7-18,0-20,0-7,1-9,4,5,3,5,3,35-2,37-2,3,1,6,2,23-1,29-1,18-9,19-10,6-1,9-2,21-26,22-28a29.2,29.2,0,0,0,2-9c0-2,1-6,2-14S134.5,111.5,133.5,110.5Zm-35,64c-3,1-10,7-12,6s-5-2-7-1-29,1-30,1-3-20-1-21,16-13,16-19-1-13,1-15,3-3,3-6,3-4,3-6v-6c1-2,2-2,6-2s19-3,18,0-7,18-7,24,5,32,7,35S101.5,173.5,98.5,174.5Zm0-77c-4,2-28,3-28,2s-4-23-4-30-2-24-11-27-10-5-10-5c-2-1-4-5,2-5s48-1,50,0,3,2,0,7-12,26-7,37,10,13,11,14S102.5,95.5,98.5,97.5Z"/><path class="cls-2" d="M95.5,164.5c2,3,6,9,3,10s-10,7-12,6-5-2-7-1-29,1-30,1-3-20-1-21,16-13,16-19-1-13,1-15,3-3,3-6,3-4,3-6v-6c1-2,2-2,6-2s19-3,18,0-7,18-7,24S93.5,161.5,95.5,164.5Z"/><path class="cls-2" d="M98.5,97.5c-4,2-28,3-28,2s-4-23-4-30-2-24-11-27-10-5-10-5c-2-1-4-5,2-5s48-1,50,0,3,2,0,7-12,26-7,37,10,13,11,14S102.5,95.5,98.5,97.5Z"/><path class="cls-2" d="M98.5,97.5c-4,2-28,3-28,2s-4-23-4-30-2-24-11-27-10-5-10-5c-2-1-4-5,2-5s48-1,50,0,3,2,0,7-12,26-7,37,10,13,11,14S102.5,95.5,98.5,97.5Z"/><path class="cls-2" d="M98.5,174.5c-3,1-10,7-12,6s-5-2-7-1-29,1-30,1-3-20-1-21,16-13,16-19-1-13,1-15,3-3,3-6,3-4,3-6v-6c1-2,2-2,6-2s19-3,18,0-7,18-7,24,5,32,7,35S101.5,173.5,98.5,174.5Z"/><path class="cls-1" d="M261.5,104.5c-14-17-40-19-47-19s-17,6-20,9a130.7,130.7,0,0,0-11,12c-3,4-12,9-13,11s-6,20-6,35,15,21,17,21,5,2,6,4,7,6,13,7,22,3,29,1a44.86,44.86,0,0,0,16-9c2-2,6-5,7-7s3-3,5-4,7-6,9-9,7-21,7-26S275.5,121.5,261.5,104.5Zm-23,71c-4,2-11,7-15,7s-18,0-22-3-4-3-2-5,12-8,10-27-5-29-8-32-8-8-9-11-2-2,1-5,17-9,17-9c5-1,9-1,11,1s5,5,8,6,7,0,8,3-2,4-2,7-4,25-5,28-1,8,0,12,5,9,5,12,2,7,3,9S242.5,173.5,238.5,175.5Z"/><path class="cls-2" d="M238.5,175.5c-4,2-11,7-15,7s-18,0-22-3-4-3-2-5,12-8,10-27-5-29-8-32-8-8-9-11-2-2,1-5,17-9,17-9c5-1,9-1,11,1s5,5,8,6,7,0,8,3-2,4-2,7-4,25-5,28-1,8,0,12,5,9,5,12,2,7,3,9S242.5,173.5,238.5,175.5Z"/><path class="cls-2" d="M238.5,175.5c-4,2-11,7-15,7s-18,0-22-3-4-3-2-5,12-8,10-27-5-29-8-32-8-8-9-11-2-2,1-5,17-9,17-9c5-1,9-1,11,1s5,5,8,6,7,0,8,3-2,4-2,7-4,25-5,28-1,8,0,12,5,9,5,12,2,7,3,9S242.5,173.5,238.5,175.5Z"/><path class="cls-1" d="M528.15,104.51c-14-17-40-19-47-19s-17,6-20,9a130.7,130.7,0,0,0-11,12c-3,4-12,9-13,11s-6,20-6,35,15,21,17,21,5,2,6,4,7,6,13,7,22,3,29,1a44.86,44.86,0,0,0,16-9c2-2,6-5,7-7s3-3,5-4,7-6,9-9,7-21,7-26S542.15,121.51,528.15,104.51Zm-23,71c-4,2-11,7-15,7s-18,0-22-3-4-3-2-5,12-8,10-27-5-29-8-32-8-8-9-11-2-2,1-5,17-9,17-9c5-1,9-1,11,1s5,5,8,6,7,0,8,3-2,4-2,7-4,25-5,28-1,8,0,12,5,9,5,12,2,7,3,9S509.15,173.51,505.15,175.51Z"/><path class="cls-1" d="M400.5,179.5c-3,0-16,1-18,2s-2,0-2-2,6-5,8-6,3-2,2-4,2-2,4-3,3-1,3-3,2-14,3-22,4-25,4-33,0-22-4-37-17-30-21-32-3-1-3-3,6-3,9-4-1-3-3-2-21,5-24,5-15,.17-15,3c0,2,4,3,7,3s11-4,15-4,4,0,5,3-2,9-7,18-3,25-4,30-4,1-5-1-9-5-15-5-15,3-16,5-9,7-13,9-14,16-18,22-5,20-3,23,4,16,6,23,17,19,20,20,7,0,9,1,4,2,9,2,27-17,28-18,3-1,4,1,1,1,4,11,5,9,7,9,4-4,8-6,17,1,19,1,4-2,7-4S403.5,179.5,400.5,179.5Zm-43-13c-4,3-18,18-25,18s-7-4-10-5-7-8-2-12,9-11,9-29-2-28-7-31-4-7-4-7c0-5,1-6,3-7s7-3,8-5,10-4,14-2,14,10,14,14,0,34,1,40,5,15,5,17S361.5,163.5,357.5,166.5Z"/><path class="cls-2" d="M363.5,157.5c0,2-2,6-6,9s-18,18-25,18-7-4-10-5-7-8-2-12,9-11,9-29-2-28-7-31-4-7-4-7c0-5,1-6,3-7s7-3,8-5,10-4,14-2,14,10,14,14,0,34,1,40S363.5,155.5,363.5,157.5Z"/><path class="cls-2" d="M363.5,157.5c0,2-2,6-6,9s-18,18-25,18-7-4-10-5-7-8-2-12,9-11,9-29-2-28-7-31-4-7-4-7c0-5,1-6,3-7s7-3,8-5,10-4,14-2,14,10,14,14,0,34,1,40S363.5,155.5,363.5,157.5Z"/><path class="cls-1" d="M550.5,91.5c1-2,4-6,6-6h23c5,0,10-5,13,2s5,13,5,15,1,3,4,1,15-15,21-16,22-1,31,8,15,24,12,38-7,21-9,28-1,16-6,16-5,4-3,4,17-1,19,0,6,4,5,4-38,2-40,2-8-3-4-4,8,1,8-2-6-10-7-15-2-13-3-18,0-29,1-33,5-19,3-19-6-2-6-3-4-1-8,3-13,13-14,16-1,27-3,34-7,15-7,19,1,9-1,10-4,4,0,4,9-3,11-2,6,4,4,4-40,7-44,6-6-4-1-5,16,1,16-1-8-14-9-19-10-25-3-42,7-27,7-28,0-1-6-1S549.5,93.5,550.5,91.5Z"/><path class="cls-1" d="M690.5,96.5c-2-1-3-2,3-4s19-6,24-6,9-1,12,5,13,28,11,47-4,26-7,29l-8,8v4s17-1,18,0,3,3,1,4-17,0-23,1-22,6-26,6-10-1-7-3,18-4,18-4-11-26-11-40,3-33,11-44,3-6-3-5S690.5,96.5,690.5,96.5Z"/><path class="cls-1" d="M691.5,64.5c4,6.7,18,4,27,0s18-9,18-13-2-9-7-10-7-5-9-6-4-2-7,0-11,11-15,13S688.5,59.5,691.5,64.5Z"/></g></svg>