<svg xmlns="http://www.w3.org/2000/svg" viewBox="0 0 967 214.29"><defs><style>.cls-1{fill:#d88dff;}.cls-1,.cls-2{stroke:#d88dff;stroke-miterlimit:10;}.cls-2{fill:none;}</style></defs><g id="Layer_11" data-name="Layer 11"><path class="cls-1" d="M109.5,103.5s43-2,43-40-42-36-42-36h-86v9h23l-1,139h-22v11h87s47,0,47-39S109.5,103.5,109.5,103.5Zm-35-67h29c12,0,24,8,24,31s-17,31-23,31h-30Zm31,139.5h-32V109.5h30.92c12.79,0,25.58,8.58,25.58,33.25S111.88,176,105.48,176Z"/><path class="cls-2" d="M104.5,98.5h-30v-62h29c12,0,24,8,24,31S110.5,98.5,104.5,98.5Z"/><path class="cls-2" d="M130,142.75c0,24.67-18.12,33.25-24.52,33.25h-32V109.5h30.92C117.21,109.5,130,118.08,130,142.75Z"/><path class="cls-2" d="M127.5,67.5c0,23-17,31-23,31h-30v-62h29C115.5,36.5,127.5,44.5,127.5,67.5Z"/><path class="cls-2" d="M130,142.75c0,24.67-18.12,33.25-24.52,33.25h-32V109.5h30.92C117.21,109.5,130,118.08,130,142.75Z"/><path class="cls-1" d="M232.5,82.5c-29,0-50,21-50,53,0,34,29,54,62,54,18,0,48-19,48-54S263.5,82.5,232.5,82.5Zm8,98c-13,0-32-8-32-44s7-46,27-46c14,0,32,8,32,48S253.5,180.5,240.5,180.5Z"/><path class="cls-2" d="M267.5,138.5c0,40-14,42-27,42s-32-8-32-44,7-46,27-46C249.5,90.5,267.5,98.5,267.5,138.5Z"/><path class="cls-2" d="M267.5,138.5c0,40-14,42-27,42s-32-8-32-44,7-46,27-46C249.5,90.5,267.5,98.5,267.5,138.5Z"/><path class="cls-1" d="M502.48,82.55c-29,0-50,21-50,53,0,34,29,54,62,54,18,0,48-19,48-54S533.48,82.55,502.48,82.55Zm8,98c-13,0-32-8-32-44s7-46,27-46c14,0,32,8,32,48S523.48,180.55,510.48,180.55Z"/><path class="cls-1" d="M417.5,176.5V25.5s-8,3-15,3h-30v8h25v62s-12-17-32-17-50,20-50,56,28,52,50,52,32-20,32-20v21s8-4,13-4h31v-10Zm-53,4c-4,0-25,2-24-43s14-46,24-46c14,0,34,8,34,47S368.5,180.5,364.5,180.5Z"/><path class="cls-2" d="M398.5,138.5c0,39-30,42-34,42s-25,2-24-43,14-46,24-46C378.5,91.5,398.5,99.5,398.5,138.5Z"/><path class="cls-2" d="M398.5,138.5c0,39-30,42-34,42s-25,2-24-43,14-46,24-46C378.5,91.5,398.5,99.5,398.5,138.5Z"/><path class="cls-1" d="M584.5,93.5v-7h27c5,0,13-4,13-4v20s17-20,41-20,32,16,32,20v76h16v8h-53v-8h15v-69c0-7-2-16-12-16s-28,4-38,19v66h14v8h-54v-8h17v-85Z"/><path class="cls-1" d="M727.5,93.5v-8h30c7,0,12-8,12-8s5,8,5,21,1,80,1,80h19v8h-66v-9h22v-84Z"/><path class="cls-1" d="M764.5,21.5c11,0,13,10,13,13s-5,16-15,16-15-8-15-13S752.5,21.5,764.5,21.5Z"/></g></svg>