<svg xmlns="http://www.w3.org/2000/svg" viewBox="0 0 967 214.29"><defs><style>.cls-1{fill:#d88dff;}.cls-1,.cls-2{stroke:#d88dff;stroke-miterlimit:10;}.cls-2{fill:none;}</style></defs><g id="Layer_12" data-name="Layer 12"><path class="cls-1" d="M100.5,104.5s42-5,42-38-30-37-39-37h-74v5h20l-1,145h-19v6h78c5,0,41-1,41-39S100.5,104.5,100.5,104.5Zm-27-67h22c7,0,23,3,23,30s-18,33-25,33h-20Zm21,140h-21v-70h17c8,0,32,3,32,37S100.5,177.5,94.5,177.5Z"/><path class="cls-2" d="M93.5,100.5h-20v-63h22c7,0,23,3,23,30S100.5,100.5,93.5,100.5Z"/><path class="cls-2" d="M122.5,144.5c0,34-22,33-28,33h-21v-70h17C98.5,107.5,122.5,110.5,122.5,144.5Z"/><path class="cls-2" d="M118.5,67.5c0,27-18,33-25,33h-20v-63h22C102.5,37.5,118.5,40.5,118.5,67.5Z"/><path class="cls-2" d="M122.5,144.5c0,34-22,33-28,33h-21v-70h17C98.5,107.5,122.5,110.5,122.5,144.5Z"/><path class="cls-1" d="M220.5,85.5c-19,0-47,12-47,52s37,52,51,52,49-12,49-47S251.5,85.5,220.5,85.5Zm4,98c-11,0-29-9-29-46s12-48,25-48c14,0,31,11,31,50S235.5,183.5,224.5,183.5Z"/><path class="cls-2" d="M251.5,139.5c0,39-16,44-27,44s-29-9-29-46,12-48,25-48C234.5,89.5,251.5,100.5,251.5,139.5Z"/><path class="cls-2" d="M251.5,139.5c0,39-16,44-27,44s-29-9-29-46,12-48,25-48C234.5,89.5,251.5,100.5,251.5,139.5Z"/><path class="cls-1" d="M383.5,178.5V26.5s-9,5-17,5h-21v6h20v62s-10-14-28-14-43,15-43,54,26,50,44,50,26-17,26-17v17a26.38,26.38,0,0,1,13-4h25v-7Zm-44,5c-15,0-24-15-24-46s8-46,24-46c18,0,25,15,25,45S354.5,183.5,339.5,183.5Z"/><path class="cls-2" d="M364.5,136.5c0,30-10,47-25,47s-24-15-24-46,8-46,24-46C357.5,91.5,364.5,106.5,364.5,136.5Z"/><path class="cls-2" d="M364.5,136.5c0,30-10,47-25,47s-24-15-24-46,8-46,24-46C357.5,91.5,364.5,106.5,364.5,136.5Z"/><path class="cls-1" d="M460.86,85.52c-19,0-47,12-47,52s37,52,51,52,49-12,49-47S491.86,85.52,460.86,85.52Zm4,98c-11,0-29-9-29-46s12-48,25-48c14,0,31,11,31,50S475.86,183.52,464.86,183.52Z"/><path class="cls-1" d="M531.5,95.5v-6a97.92,97.92,0,0,0,19,0,64.81,64.81,0,0,0,18-4v16s11-16,34-16,30,14,30,27v69h13v6h-49v-6h16v-71s-1-18-15-18-29,17-29,17v72h15v6h-50v-7h16v-85Z"/><path class="cls-1" d="M656.5,94.5v-6h21c9,0,16-7,16-7s4,6,4,16v83h17v7h-56v-7h18v-86Z"/><path class="cls-1" d="M685.5,27.5c11,0,13,9,13,11s-5,14-12,14-12-3-12-12S682.5,27.5,685.5,27.5Z"/></g></svg>