<svg xmlns="http://www.w3.org/2000/svg" viewBox="0 0 967 214.29"><defs><style>.cls-1{fill:#d88dff;}.cls-1,.cls-2{stroke:#d88dff;stroke-miterlimit:10;}.cls-2{fill:none;}</style></defs><g id="Layer_13" data-name="Layer 13"><path class="cls-1" d="M92.5,101.5s46-6,46-38-35-36-46-36h-63v3h14c5,0,5,6,5,6v140c0,4-5,5-5,5h-14v3h64s50,3,50-40S92.5,101.5,92.5,101.5Zm-22-69h20c6,0,22,1,22,31s-19,35-20,35h-22Zm21,147h-21v-75h19c5,0,30,5,30,37S99.5,179.5,91.5,179.5Z"/><path class="cls-2" d="M112.5,63.5c0,30-19,35-20,35h-22v-66h20C96.5,32.5,112.5,33.5,112.5,63.5Z"/><path class="cls-2" d="M119.5,141.5c0,32-20,38-28,38h-21v-75h19C94.5,104.5,119.5,109.5,119.5,141.5Z"/><path class="cls-2" d="M112.5,63.5c0,30-19,35-20,35h-22v-66h20C96.5,32.5,112.5,33.5,112.5,63.5Z"/><path class="cls-2" d="M119.5,141.5c0,32-20,38-28,38h-21v-75h19C94.5,104.5,119.5,109.5,119.5,141.5Z"/><path class="cls-1" d="M209.5,83.5c-37,0-48,35-48,56s16,49,50,49,45-34,45-52S244.5,83.5,209.5,83.5Zm2,101c-20,0-29-19-29-46s4-51,27-51c20,0,27,21,27,48S231.5,184.5,211.5,184.5Z"/><path class="cls-2" d="M236.5,135.5c0,27-5,49-25,49s-29-19-29-46,4-51,27-51C229.5,87.5,236.5,108.5,236.5,135.5Z"/><path class="cls-2" d="M236.5,135.5c0,27-5,49-25,49s-29-19-29-46,4-51,27-51C229.5,87.5,236.5,108.5,236.5,135.5Z"/><path class="cls-1" d="M427,84.17c-37,0-48,35-48,56s16,49,50,49,45-34,45-52S462,84.17,427,84.17Zm2,101c-20,0-29-19-29-46s4-51,27-51c20,0,27,21,27,48S449,185.17,429,185.17Z"/><path class="cls-1" d="M358.5,178.5l-1-154s-13,7-21,7h-12v3h9c4,0,6,5,6,7v53s-5-11-23-11-45,12-45,54,33,51,46,51,22-10,22-10v11s11-7,18-7h15v-4Zm-25-2c-7,6-9,8-16,8s-26-8-26-43,8-54,28-54c15,0,20,12,20,21v53S340.5,170.5,333.5,176.5Z"/><path class="cls-2" d="M333.5,176.5c-7,6-9,8-16,8s-26-8-26-43,8-54,28-54c15,0,20,12,20,21v53S340.5,170.5,333.5,176.5Z"/><path class="cls-2" d="M333.5,176.5c-7,6-9,8-16,8s-26-8-26-43,8-54,28-54c15,0,20,12,20,21v53S340.5,170.5,333.5,176.5Z"/><path class="cls-1" d="M486.5,96.5v-3h9c11,0,26-9,26-9v14a37.31,37.31,0,0,1,29-14c19,0,30,17,30,23v75h12v3h-46v-3h15v-74c0-6-2-19-17-19s-23,14-23,14l1,79h13v3h-46v-3h14v-80c0-3-1-6-5-6Z"/><path class="cls-1" d="M600.5,94.5v-4h13c7,0,20-8,20-8v99h15v4h-47v-4h14v-83c0-3-1-4-4-4Z"/><path class="cls-1" d="M623.5,31.5c10,0,9,10,9,10s0,10-9,10c-10,0-10-10-10-10S613.5,31.5,623.5,31.5Z"/></g></svg>