<svg id="Layer_2" data-name="Layer 2" xmlns="http://www.w3.org/2000/svg" viewBox="0 0 967.13 214.12"><defs><style>.cls-1{fill:#d88dff;}.cls-1,.cls-2{stroke:#d88dff;stroke-miterlimit:10;}.cls-2{fill:none;}</style></defs><path class="cls-1" d="M202.5,121.5c-5-4-13-14-43-14-5,0-4-3-1-3,7,0,32-3,40-10s13-22,13-28-3-23-16-30a80,80,0,0,0-38-10H26.5L27,32H46V187H27v6H154s28.5-.5,41.5-9.5,19-17,19-32S207.5,125.5,202.5,121.5Zm-87-89c24,1,24,15,24,15s1,27,0,43-24,13-24,13Zm26,137.94s0,15.46-26,16.56V108.59s24.93-3.31,26,14.36S141.52,170.44,141.52,170.44Z"/><path class="cls-2" d="M139.5,90.5c-1,16-24,13-24,13v-71c24,1,24,15,24,15S140.5,74.5,139.5,90.5Z"/><path class="cls-2" d="M141.52,170.44s0,15.46-26,16.56V108.59s24.93-3.31,26,14.36S141.52,170.44,141.52,170.44Z"/><path class="cls-2" d="M139.5,90.5c-1,16-24,13-24,13v-71c24,1,24,15,24,15S140.5,74.5,139.5,90.5Z"/><path class="cls-2" d="M141.52,170.44s0,15.46-26,16.56V108.59s24.93-3.31,26,14.36S141.52,170.44,141.52,170.44Z"/><path class="cls-2" d="M312.5,95.31v83.15a12.63,12.63,0,0,1-.32,2.87c-.78,3.35-3.39,10.17-11.68,10.17-11,0-11-12-11-12V96a12.9,12.9,0,0,1,1.37-5.85c1.66-3.24,4.95-7.62,10.63-7.62,6.07,0,9,5,10.19,8.27A12.79,12.79,0,0,1,312.5,95.31Z"/><path class="cls-1" d="M300.5,76.5c-3,0-70,3-70,61s66,61,70,61,73,2,72-61S300.5,76.5,300.5,76.5Zm12,102a12.63,12.63,0,0,1-.32,2.87c-.78,3.35-3.39,10.17-11.68,10.17-11,0-11-12-11-12V96a12.9,12.9,0,0,1,1.37-5.85c1.66-3.24,4.95-7.62,10.63-7.62,6.07,0,9,5,10.19,8.27a12.79,12.79,0,0,1,.81,4.54Z"/><path class="cls-2" d="M312.5,95.31v83.15a12.63,12.63,0,0,1-.32,2.87c-.78,3.35-3.39,10.17-11.68,10.17-11,0-11-12-11-12V96a12.9,12.9,0,0,1,1.37-5.85c1.66-3.24,4.95-7.62,10.63-7.62,6.07,0,9,5,10.19,8.27A12.79,12.79,0,0,1,312.5,95.31Z"/><path class="cls-1" d="M613.5,76c-3,0-70,3-70,61s66,61,70,61,73,2,72-61S613.5,76,613.5,76Zm12,102a12.63,12.63,0,0,1-.32,2.87c-.78,3.35-3.39,10.17-11.68,10.17-11,0-11-12-11-12V95.5a12.9,12.9,0,0,1,1.37-5.85c1.66-3.24,5-7.62,10.63-7.62,6.07,0,9,5,10.19,8.27a12.79,12.79,0,0,1,.81,4.54Z"/><path class="cls-1" d="M522.5,187.5V24.5a7.2,7.2,0,0,0-7,0c-4,2-22,3-22,3h-43v5h18v63c0-7-20-19-37-19s-46,15-46,61,28,61,49,61,37-25,37-25v22h4c3-2,12-3,12-3h45v-5Zm-55-29s-1,23-13,23-12-19-12-23v-47c0-4,3-19,12-19s13,10,13,20Z"/><path class="cls-2" d="M467.5,112.5v46s-1,23-13,23-12-19-12-23v-47c0-4,3-19,12-19S467.5,102.5,467.5,112.5Z"/><path class="cls-2" d="M467.5,112.5v46s-1,23-13,23-12-19-12-23v-47c0-4,3-19,12-19S467.5,102.5,467.5,112.5Z"/><path class="cls-1" d="M709.5,85.5h-13v-5h45s10,0,12-2,7,0,7,0v22s1,2,3,0,10-23,41-23,33,22,33,25,1,85,1,85h13v6h-73v-6h7v-80c0-4-3-11-9-11s-13,8-13,18v73h8v6h-75v-6h13Z"/><path class="cls-1" d="M875.5,85.5h-13v-5h49s10,0,13-3,5,0,5,0v110h13v6h-80v-6h13Z"/><path class="cls-1" d="M873.5,43.5s-1,24,29,24,29-25,29-24-2-22-29-22S873.5,43.5,873.5,43.5Z"/></svg>