<?xml version="1.0" encoding="UTF-8"?>
<!-- Created with Inkscape (http://www.inkscape.org/) -->
<svg width="296.57mm" height="87.039mm" inkscape:version="0.92.4 (5da689c313, 2019-01-14)" version="1.1" viewBox="0 0 1120.9 328.97" xml:space="preserve" xmlns="http://www.w3.org/2000/svg" xmlns:cc="http://creativecommons.org/ns#" xmlns:dc="http://purl.org/dc/elements/1.1/" xmlns:inkscape="http://www.inkscape.org/namespaces/inkscape" xmlns:rdf="http://www.w3.org/1999/02/22-rdf-syntax-ns#"><title>Slanted Logo</title><metadata><rdf:RDF><cc:Work rdf:about=""><dc:format>image/svg+xml</dc:format><dc:type rdf:resource="http://purl.org/dc/dcmitype/StillImage"/><dc:title>Slanted Logo</dc:title></cc:Work></rdf:RDF></metadata><g transform="matrix(1.3333 0 0 -1.3333 0 328.97)" stroke-width="4.943" inkscape:groupmode="layer" inkscape:label="Slanted_Logo"><path d="m0 246.73 0.004943-140.63 106.09-106.1h734.58v141.17l-105.55 105.56z" fill="#0c0e0d" inkscape:connector-curvature="0"/><g fill="#fff"><path d="m62.806 201.83c-8.8728 0-15.467-3.3662-15.467-9.4165 0-4.8392 4.5723-8.3389 11.3-9.8169l13.312-2.689c15.734-3.2278 35.639-8.067 35.639-28.511 0-20.439-20.578-32.006-40.884-32.006-25.012 0-41.423 12.511-44.917 33.489h22.862c2.5556-10.227 10.628-14.933 22.595-14.933 7.8001 0 16.673 2.5605 16.673 10.628 0 6.3221-7.5282 9.4115-18.151 11.7l-11.834 2.4221c-15.872 3.3613-30.261 10.89-30.261 28.373 0 19.906 21.384 29.184 40.479 29.184 19.095 0 37.251-8.3389 40.612-29.856h-22.723c-2.2886 7.2613-9.4165 11.433-19.233 11.433" inkscape:connector-curvature="0"/><path d="m140.8 141.45h46.801v-20.306h-69.796v97.496h22.995z" inkscape:connector-curvature="0"/><path d="m232.11 157.18h25.145l-12.506 37.117zm0.13347 61.462h25.284l36.85-97.501h-25.017l-5.9168 17.35h-37.656l-5.7834-17.35h-24.473z" inkscape:connector-curvature="0"/><path d="m365.25 121.14-39.134 67.245v-67.245h-22.189v97.501h27.973l39.134-67.245v67.245h22.189v-97.501z" inkscape:connector-curvature="0"/><path d="m433.83 198.47h-31.2v20.173h85.668v-20.173h-31.334v-77.329h-23.133z" inkscape:connector-curvature="0"/><path d="m498.36 218.64h74.773v-20.173h-51.778v-17.078h48.956v-20.311h-48.956v-19.629h51.778v-20.311h-74.773z" inkscape:connector-curvature="0"/><path d="m617.93 199.27h-9.5499v-58.768h9.5499c16.945 0 32.278 3.6331 32.278 29.451 0 25.689-15.333 29.317-32.278 29.317m-0.40533 19.367c31.878 0 57.023-11.567 57.023-48.684 0-37.251-25.145-48.817-57.023-48.817h-32.14v97.501z" inkscape:connector-curvature="0"/></g></g></svg>
