<svg xmlns="http://www.w3.org/2000/svg" viewBox="0 0 728 214.29"><defs><style>.cls-1{fill:#d88dff;}.cls-1,.cls-2{stroke:#d88dff;stroke-miterlimit:10;}.cls-2{fill:none;}</style></defs><g id="Layer_7" data-name="Layer 7"><path class="cls-1" d="M87.5,103.5s43-1,43-39-45-38-52-38H8.5v6h19v149H8.5v5h81c11,0,45-5,45-42S87.5,103.5,87.5,103.5Zm-32-71h27c7,0,20,6,20,32s-13,36-20,36h-27Zm29,149h-29v-74h28c8,0,23,10,23,38S97.5,181.5,84.5,181.5Z"/><path class="cls-2" d="M82.5,100.5h-27v-68h27c7,0,20,6,20,32S89.5,100.5,82.5,100.5Z"/><path class="cls-2" d="M106.5,145.5c0,28-9,36-22,36h-29v-74h28C91.5,107.5,106.5,117.5,106.5,145.5Z"/><path class="cls-2" d="M102.5,64.5c0,26-13,36-20,36h-27v-68h27C89.5,32.5,102.5,38.5,102.5,64.5Z"/><path class="cls-2" d="M106.5,145.5c0,28-9,36-22,36h-29v-74h28C91.5,107.5,106.5,117.5,106.5,145.5Z"/><path class="cls-1" d="M207.5,78.5c-38,0-52,34-52,57s12,56,52,56,52-37,52-56S246.5,78.5,207.5,78.5Zm0,108c-22,0-26-17-26-51s2-53,26-52c22,.92,25,20,25,52S229.5,186.5,207.5,186.5Z"/><path class="cls-2" d="M232.5,135.5c0,32-3,51-25,51s-26-17-26-51,2-53,26-52C229.48,84.42,232.5,103.5,232.5,135.5Z"/><path class="cls-2" d="M232.5,135.5c0,32-3,51-25,51s-26-17-26-51,2-53,26-52C229.48,84.42,232.5,103.5,232.5,135.5Z"/><path class="cls-1" d="M464,78.76c-38,0-52,34-52,57s12,56,52,56,52-37,52-56S503,78.76,464,78.76Zm0,108c-22,0-26-17-26-51s2-53,26-52c22,.92,25,20,25,52S486,186.76,464,186.76Z"/><path class="cls-1" d="M381.5,181.5V25.5h-42v6h19v69c0-4-14-22-32-22s-43,21-43,57,22,56,45,56,31-23,31-23v20h38v-7Zm-53,5c-18,0-20-13-20-53s6-50,20-50c15,0,30,13,30,50S346.5,186.5,328.5,186.5Z"/><path class="cls-2" d="M358.5,133.5c0,37-12,53-30,53s-20-13-20-53,6-50,20-50C343.5,83.5,358.5,96.5,358.5,133.5Z"/><path class="cls-2" d="M358.5,133.5c0,37-12,53-30,53s-20-13-20-53,6-50,20-50C343.5,83.5,358.5,96.5,358.5,133.5Z"/><path class="cls-1" d="M530.5,88.5v-6h39v29s11-33,38-33,33,19,33,26v77h16v6h-53v-6h14v-78c0-7-2-18-16-18s-32,27-32,35v61h18v6h-55v-6h15v-93Z"/><polygon class="cls-1" points="665.5 88.5 665.5 82.5 706.5 82.5 706.5 181.5 723.5 181.5 723.5 187.5 667.5 187.5 667.5 181.5 684.5 181.5 684.5 88.5 665.5 88.5"/><path class="cls-1" d="M694.5,32.5c14,0,14,14,14,14s-1,14-14,14-14-13-14-14S680.5,32.5,694.5,32.5Z"/></g></svg>